<svg width="31" height="31" viewBox="0 0 31 31" fill="none" xmlns="http://www.w3.org/2000/svg">
<g opacity="0.5">
<path d="M25 12.6559V4.90422C25 4.55696 25.4121 4.37465 25.6691 4.60824L30.1569 8.68808C30.3376 8.8524 30.3302 9.13895 30.1411 9.29364L25.6533 12.9655C25.3921 13.1792 25 12.9934 25 12.6559Z" fill="black" stroke="black"/>
<path d="M25 9H17.5C16.3954 9 15.5 9.89543 15.5 11V14.5" stroke="black" stroke-width="1.5"/>
</g>
<path d="M6 18.8441V26.5958C6 26.943 5.58788 27.1253 5.33093 26.8918L0.843115 22.8119C0.662361 22.6476 0.669824 22.3611 0.858889 22.2064L5.34671 18.5345C5.60788 18.3208 6 18.5066 6 18.8441Z" fill="black" stroke="black"/>
<path d="M6 22.5H13.5C14.6046 22.5 15.5 21.6046 15.5 20.5V17" stroke="black" stroke-width="1.5"/>
</svg>
