<svg width="31" height="31" viewBox="0 0 31 31" fill="none" xmlns="http://www.w3.org/2000/svg">
<g opacity="0.5">
<path d="M25 12.6559V4.90421C25 4.55695 25.4121 4.37464 25.6691 4.60823L30.1569 8.68807C30.3376 8.85239 30.3302 9.13894 30.1411 9.29363L25.6533 12.9655C25.3921 13.1792 25 12.9934 25 12.6559Z" fill="white" stroke="white"/>
<path d="M25 9H17.5C16.3954 9 15.5 9.89543 15.5 11V14.5" stroke="white" stroke-width="1.5"/>
</g>
<path d="M5.99973 18.8441V26.5958C5.99973 26.943 5.58761 27.1253 5.33066 26.8918L0.842846 22.8119C0.662092 22.6476 0.669555 22.3611 0.85862 22.2064L5.34644 18.5345C5.60761 18.3208 5.99973 18.5066 5.99973 18.8441Z" fill="white" stroke="white"/>
<path d="M6 22.5H13.5C14.6046 22.5 15.5 21.6046 15.5 20.5V17" stroke="white" stroke-width="1.5"/>
</svg>
