<svg width="31" height="31" viewBox="0 0 31 31" fill="none" xmlns="http://www.w3.org/2000/svg">
<path d="M14.805 27.0465L5.66993 21.0888C4.88346 20.5759 4.88346 19.4239 5.66993 18.911L14.805 12.9533C15.229 12.6768 15.7749 12.6716 16.2042 12.9398L25.7365 18.8975C26.5511 19.4067 26.5511 20.5931 25.7365 21.1023L16.2042 27.06C15.7749 27.3282 15.229 27.323 14.805 27.0465Z" fill="#262628" stroke="white" stroke-width="1.5"/>
<path d="M14.805 23.0465L5.66993 17.0888C4.88346 16.5759 4.88346 15.4239 5.66993 14.911L14.805 8.95329C15.229 8.67678 15.7749 8.67151 16.2042 8.93979L25.7365 14.8975C26.5511 15.4067 26.5511 16.5931 25.7365 17.1023L16.2042 23.06C15.7749 23.3282 15.229 23.323 14.805 23.0465Z" fill="#262628" stroke="white" stroke-width="1.5"/>
<path d="M14.805 18.5465L5.66993 12.5888C4.88346 12.0759 4.88346 10.9239 5.66993 10.411L14.805 4.45329C15.229 4.17678 15.7749 4.17151 16.2042 4.43979L25.7365 10.3975C26.5511 10.9067 26.5511 12.0931 25.7365 12.6023L16.2042 18.56C15.7749 18.8282 15.229 18.823 14.805 18.5465Z" fill="#262628" stroke="white" stroke-width="1.5"/>
</svg>
