<svg width="408" height="408" viewBox="0 0 408 408" fill="none" xmlns="http://www.w3.org/2000/svg">
<path d="M198.463 95.0018C198.103 95.0214 197.623 95.0604 197.279 95.1503L4.88894 145.615C3.90066 145.877 2.97873 146.361 2.37333 147.096C1.76786 147.83 1.37725 148.861 1.33814 149.76C1.29908 150.658 1.6897 151.65 2.22486 152.424C2.76002 153.197 3.63105 153.861 4.59205 154.201L198.912 222.428C199.443 222.612 199.971 222.721 200.541 222.721C201.111 222.725 201.783 222.604 202.318 222.428L404.478 154.35C405.451 154.022 406.447 153.206 406.994 152.424C407.541 151.647 407.771 150.667 407.732 149.76C407.693 148.854 407.314 147.835 406.697 147.096C406.08 146.358 405.037 145.717 404.033 145.467L199.953 95.1514C199.59 95.0615 199.148 95.0107 198.769 95.0029C198.644 94.999 198.597 94.999 198.472 95.0029L198.463 95.0018ZM198.611 104.326L199.795 104.623L370.585 146.803L386.421 150.651L371.03 155.83L202.17 212.807L200.689 213.253L199.06 212.659L36.5602 155.682L22.0562 150.651L37.0052 146.655L197.575 104.624L198.61 104.327L198.611 104.326Z" fill="black"/>
<path d="M402.083 191.442C402.247 191.438 402.415 191.438 402.575 191.446H402.579C403.239 191.485 403.911 191.661 404.489 191.938C405.071 192.216 405.602 192.618 406.012 193.079C406.422 193.54 406.739 194.083 406.926 194.638C407.114 195.192 407.188 195.802 407.137 196.38C407.09 196.958 406.915 197.552 406.629 198.075C406.348 198.598 405.934 199.098 405.446 199.493C404.958 199.888 404.356 200.204 403.727 200.388H403.641L201.431 264.365C200.443 264.677 199.232 264.673 198.247 264.365L3.87746 200.388H3.81496C3.25246 200.212 2.71337 199.927 2.26027 199.583C1.81105 199.235 1.42043 198.802 1.13527 198.341C0.850109 197.88 0.646976 197.36 0.549316 196.845C0.45166 196.329 0.45166 195.782 0.549316 195.263C0.646973 194.747 0.842291 194.223 1.12744 193.763C1.4126 193.298 1.79932 192.864 2.25244 192.516C2.70166 192.169 3.24072 191.884 3.80324 191.704C4.36576 191.524 4.98684 191.442 5.58054 191.466C6.08054 191.485 6.58834 191.583 7.05324 191.743L7.11574 191.759L198.456 254.736L199.909 255.212L201.366 254.747L400.526 191.735L400.612 191.704C401.077 191.548 401.581 191.458 402.084 191.438L402.083 191.442Z" fill="black"/>
<path d="M401.602 239.282C401.77 239.278 401.935 239.278 402.102 239.286C402.763 239.333 403.431 239.501 404.013 239.778C404.595 240.059 405.126 240.458 405.536 240.915C405.946 241.376 406.263 241.922 406.454 242.477C406.642 243.032 406.716 243.641 406.665 244.219C406.618 244.797 406.442 245.387 406.157 245.915C405.876 246.438 405.462 246.938 404.974 247.333C404.485 247.727 403.884 248.044 403.255 248.231H403.169L200.959 312.208C199.971 312.521 198.76 312.517 197.775 312.208L3.40527 248.231H3.34277C2.78027 248.055 2.24117 247.77 1.78807 247.426C1.33885 247.079 0.94824 246.645 0.65918 246.184C0.37402 245.719 0.170902 245.2 0.073242 244.684C-0.024414 244.169 -0.024414 243.622 0.073242 243.102C0.170899 242.587 0.366202 242.063 0.651352 241.602C0.936512 241.137 1.32323 240.704 1.77635 240.356C2.22557 240.005 2.76463 239.723 3.32715 239.544C3.88967 239.364 4.51076 239.282 5.10446 239.305C5.60446 239.305 6.11225 239.423 6.57715 239.587H6.63965L197.98 302.56L199.433 303.036L400.043 239.563H400.129C400.594 239.407 401.097 239.317 401.601 239.298L401.602 239.282Z" fill="black"/>
</svg>
