<svg width="31" height="31" viewBox="0 0 31 31" fill="none" xmlns="http://www.w3.org/2000/svg">
<path d="M14.8047 27.0466L5.66964 21.0889C4.88317 20.576 4.88317 19.424 5.66964 18.9111L14.8047 12.9534C15.2287 12.6769 15.7746 12.6717 16.2039 12.9399L25.7362 18.8976C26.5508 19.4068 26.5508 20.5932 25.7362 21.1024L16.2039 27.0601C15.7746 27.3283 15.2287 27.3231 14.8047 27.0466Z" fill="white" stroke="black" stroke-width="1.5"/>
<path d="M14.8047 23.0466L5.66964 17.0889C4.88317 16.576 4.88317 15.424 5.66964 14.9111L14.8047 8.95343C15.2287 8.67692 15.7746 8.67165 16.2039 8.93993L25.7362 14.8976C26.5508 15.4068 26.5508 16.5932 25.7362 17.1024L16.2039 23.0601C15.7746 23.3283 15.2287 23.3231 14.8047 23.0466Z" fill="white" stroke="black" stroke-width="1.5"/>
<path d="M14.8047 18.5466L5.66964 12.5889C4.88317 12.076 4.88317 10.924 5.66964 10.4111L14.8047 4.45343C15.2287 4.17692 15.7746 4.17165 16.2039 4.43993L25.7362 10.3976C26.5508 10.9068 26.5508 12.0932 25.7362 12.6024L16.2039 18.5601C15.7746 18.8283 15.2287 18.8231 14.8047 18.5466Z" fill="white" stroke="black" stroke-width="1.5"/>
</svg>
