<svg width="51" height="51" viewBox="0 0 51 51" fill="none" xmlns="http://www.w3.org/2000/svg">
<path d="M2 19.3C2 16.2624 4.46243 13.8 7.5 13.8C10.5376 13.8 13 16.2624 13 19.3C13 22.3376 10.5376 24.8 7.5 24.8C4.46243 24.8 2 22.3376 2 19.3Z" fill="#9A41FE"/>
<path d="M20 19.3C20 16.2624 22.4624 13.8 25.5 13.8C28.5376 13.8 31 16.2624 31 19.3C31 22.3376 28.5376 24.8 25.5 24.8C22.4624 24.8 20 22.3376 20 19.3Z" fill="#9A41FE"/>
<path d="M38 19.3C38 16.2624 40.4624 13.8 43.5 13.8C46.5376 13.8 49 16.2624 49 19.3C49 22.3376 46.5376 24.8 43.5 24.8C40.4624 24.8 38 22.3376 38 19.3Z" fill="#9A41FE"/>
<path d="M2 32.3C2 29.2624 4.46243 26.8 7.5 26.8C10.5376 26.8 13 29.2624 13 32.3C13 35.3376 10.5376 37.8 7.5 37.8C4.46243 37.8 2 35.3376 2 32.3Z" fill="#9A41FE"/>
<path d="M20 32.3C20 29.2624 22.4624 26.8 25.5 26.8C28.5376 26.8 31 29.2624 31 32.3C31 35.3376 28.5376 37.8 25.5 37.8C22.4624 37.8 20 35.3376 20 32.3Z" fill="#9A41FE"/>
<path d="M38 32.3C38 29.2624 40.4624 26.8 43.5 26.8C46.5376 26.8 49 29.2624 49 32.3C49 35.3376 46.5376 37.8 43.5 37.8C40.4624 37.8 38 35.3376 38 32.3Z" fill="#9A41FE"/>
<path d="M2 45.3C2 42.2624 4.46243 39.8 7.5 39.8C10.5376 39.8 13 42.2624 13 45.3C13 48.3376 10.5376 50.8 7.5 50.8C4.46243 50.8 2 48.3376 2 45.3Z" fill="#9A41FE"/>
<path d="M20 45.3C20 42.2624 22.4624 39.8 25.5 39.8C28.5376 39.8 31 42.2624 31 45.3C31 48.3376 28.5376 50.8 25.5 50.8C22.4624 50.8 20 48.3376 20 45.3Z" fill="#9A41FE"/>
<path d="M38 45.3C38 42.2624 40.4624 39.8 43.5 39.8C46.5376 39.8 49 42.2624 49 45.3C49 48.3376 46.5376 50.8 43.5 50.8C40.4624 50.8 38 48.3376 38 45.3Z" fill="#9A41FE"/>
<path d="M20 6.29999C20 3.26242 22.4624 0.799988 25.5 0.799988C28.5376 0.799988 31 3.26242 31 6.29999C31 9.33755 28.5376 11.8 25.5 11.8C22.4624 11.8 20 9.33755 20 6.29999Z" fill="#9A41FE"/>
<path d="M2 6.29999C2 3.26242 4.46243 0.799988 7.5 0.799988C10.5376 0.799988 13 3.26242 13 6.29999C13 9.33755 10.5376 11.8 7.5 11.8C4.46243 11.8 2 9.33755 2 6.29999Z" fill="#9A41FE"/>
<path d="M38 6.29999C38 3.26242 40.4624 0.799988 43.5 0.799988C46.5376 0.799988 49 3.26242 49 6.29999C49 9.33755 46.5376 11.8 43.5 11.8C40.4624 11.8 38 9.33755 38 6.29999Z" fill="#9A41FE"/>
</svg>
